<svg fill="none" height="48" viewBox="0 0 223 48" width="223" xmlns="http://www.w3.org/2000/svg" xmlns:xlink="http://www.w3.org/1999/xlink"><filter id="a" color-interpolation-filters="sRGB" filterUnits="userSpaceOnUse" height="54" width="48" x="0" y="-3"><feFlood flood-opacity="0" result="BackgroundImageFix"/><feBlend in="SourceGraphic" in2="BackgroundImageFix" mode="normal" result="shape"/><feColorMatrix in="SourceAlpha" result="hardAlpha" type="matrix" values="0 0 0 0 0 0 0 0 0 0 0 0 0 0 0 0 0 0 127 0"/><feOffset dy="-3"/><feGaussianBlur stdDeviation="1.5"/><feComposite in2="hardAlpha" k2="-1" k3="1" operator="arithmetic"/><feColorMatrix type="matrix" values="0 0 0 0 0 0 0 0 0 0 0 0 0 0 0 0 0 0 0.1 0"/><feBlend in2="shape" mode="normal" result="effect1_innerShadow_3046_38730"/><feColorMatrix in="SourceAlpha" result="hardAlpha" type="matrix" values="0 0 0 0 0 0 0 0 0 0 0 0 0 0 0 0 0 0 127 0"/><feOffset dy="3"/><feGaussianBlur stdDeviation="1.5"/><feComposite in2="hardAlpha" k2="-1" k3="1" operator="arithmetic"/><feColorMatrix type="matrix" values="0 0 0 0 1 0 0 0 0 1 0 0 0 0 1 0 0 0 0.1 0"/><feBlend in2="effect1_innerShadow_3046_38730" mode="normal" result="effect2_innerShadow_3046_38730"/><feColorMatrix in="SourceAlpha" result="hardAlpha" type="matrix" values="0 0 0 0 0 0 0 0 0 0 0 0 0 0 0 0 0 0 127 0"/><feMorphology in="SourceAlpha" operator="erode" radius="1" result="effect3_innerShadow_3046_38730"/><feOffset/><feComposite in2="hardAlpha" k2="-1" k3="1" operator="arithmetic"/><feColorMatrix type="matrix" values="0 0 0 0 0.0627451 0 0 0 0 0.0941176 0 0 0 0 0.156863 0 0 0 0.24 0"/><feBlend in2="effect2_innerShadow_3046_38730" mode="normal" result="effect3_innerShadow_3046_38730"/></filter><filter id="b" color-interpolation-filters="sRGB" filterUnits="userSpaceOnUse" height="42" width="36" x="6" y="5.25"><feFlood flood-opacity="0" result="BackgroundImageFix"/><feColorMatrix in="SourceAlpha" result="hardAlpha" type="matrix" values="0 0 0 0 0 0 0 0 0 0 0 0 0 0 0 0 0 0 127 0"/><feMorphology in="SourceAlpha" operator="erode" radius="1.5" result="effect1_dropShadow_3046_38730"/><feOffset dy="2.25"/><feGaussianBlur stdDeviation="2.25"/><feComposite in2="hardAlpha" operator="out"/><feColorMatrix type="matrix" values="0 0 0 0 0.141176 0 0 0 0 0.141176 0 0 0 0 0.141176 0 0 0 0.1 0"/><feBlend in2="BackgroundImageFix" mode="normal" result="effect1_dropShadow_3046_38730"/><feBlend in="SourceGraphic" in2="effect1_dropShadow_3046_38730" mode="normal" result="shape"/></filter><linearGradient id="c" gradientUnits="userSpaceOnUse" x1="24" x2="26" y1=".000001" y2="48"><stop offset="0" stop-color="#fff" stop-opacity="0"/><stop offset="1" stop-color="#fff" stop-opacity=".12"/></linearGradient><linearGradient id="d"><stop offset="0" stop-color="#fff" stop-opacity=".8"/><stop offset="1" stop-color="#fff" stop-opacity=".5"/></linearGradient><linearGradient id="e" gradientUnits="userSpaceOnUse" x1="10.9685" x2="10.9685" xlink:href="#d" y1="26.9446" y2="30.4434"/><linearGradient id="f" gradientUnits="userSpaceOnUse" x1="16.7605" x2="16.7605" xlink:href="#d" y1="27.4639" y2="35.7085"/><linearGradient id="g" gradientUnits="userSpaceOnUse" x1="28.4586" x2="28.4586" xlink:href="#d" y1="35.4314" y2="38.9652"/><linearGradient id="h" gradientUnits="userSpaceOnUse" x1="36.0381" x2="36.0381" xlink:href="#d" y1="26.8406" y2="32.6603"/><linearGradient id="i" gradientUnits="userSpaceOnUse" x1="28.5042" x2="28.5042" xlink:href="#d" y1="18.1282" y2="38.9997"/><linearGradient id="j" gradientUnits="userSpaceOnUse" x1="28.9117" x2="28.9117" xlink:href="#d" y1="12.7761" y2="26.2517"/><linearGradient id="k" gradientUnits="userSpaceOnUse" x1="22.1614" x2="22.1614" xlink:href="#d" y1="9.38135" y2="25.7321"/><linearGradient id="l" gradientUnits="userSpaceOnUse" x1="13.2769" x2="13.2769" xlink:href="#d" y1="13.5037" y2="21.9908"/><linearGradient id="m" gradientUnits="userSpaceOnUse" x1="20.1503" x2="20.1503" xlink:href="#d" y1="9.00024" y2="12.6376"/><linearGradient id="n" gradientUnits="userSpaceOnUse" x1="24" x2="24" y1="0" y2="48"><stop offset="0" stop-color="#fff" stop-opacity=".12"/><stop offset="1" stop-color="#fff" stop-opacity="0"/></linearGradient><clipPath id="o"><rect height="48" rx="12" width="48"/></clipPath><g filter="url(#a)"><g clip-path="url(#o)"><rect fill="#444ce7" height="48" rx="12" width="48"/><path d="m0 0h48v48h-48z" fill="url(#c)"/><g clip-rule="evenodd" fill-rule="evenodd" filter="url(#b)"><path d="m12.2178 27.4519c.6804.6764.6804 1.7731 0 2.4495l-.0348.0347c-.6804.6764-1.7834.6764-2.46377-.0001-.68034-.6764-.68033-1.7731.00002-2.4495l.03485-.0346c.6803-.6764 1.7834-.6764 2.4637 0z" fill="url(#e)" opacity=".5"/><path d="m20.4074 27.9734c.6791.6776.6771 1.7743-.0045 2.4495l-4.8257 4.7805c-.6815.6752-1.7846.6732-2.4637-.0044s-.6771-1.7743.0045-2.4495l4.8257-4.7805c.6815-.6752 1.7846-.6732 2.4637.0044z" fill="url(#f)" opacity=".7"/><path d="m26.9568 36.2029c.5337-.796 1.6154-1.011 2.4159-.4804l.1046.0693c.8005.5306 1.0169 1.606.4831 2.4019-.5337.796-1.6153 1.011-2.4159.4804l-.1045-.0693c-.8005-.5306-1.0169-1.606-.4832-2.4019z" fill="url(#g)" opacity=".5"/><path d="m38.4546 27.3479c.6804.6764.6804 1.7731 0 2.4495l-2.3693 2.3556c-.6803.6764-1.7834.6764-2.4637 0-.6804-.6764-.6804-1.7731 0-2.4495l2.3693-2.3556c.6803-.6764 1.7834-.6764 2.4637 0z" fill="url(#h)" opacity=".7"/><path d="m38.4902 18.6355c.6804.6764.6804 1.7731 0 2.4495l-17.5084 17.4073c-.6803.6765-1.7834.6765-2.4637 0-.6804-.6764-.6804-1.7731 0-2.4495l17.5084-17.4073c.6803-.6764 1.7834-.6764 2.4637 0z" fill="url(#i)"/><path d="m35.1783 13.2834c.6803.6765.6803 1.7731 0 2.4496l-10.0695 10.0113c-.6804.6765-1.7834.6765-2.4638 0-.6803-.6764-.6803-1.7731 0-2.4495l10.0695-10.0114c.6804-.6764 1.7835-.6764 2.4638 0z" fill="url(#j)"/><path d="m29.8645 9.88784c.6808.67596.6815 1.77266.0016 2.44956l-12.944 12.8866c-.6799.6769-1.7829.6776-2.4637.0016-.6808-.6759-.6816-1.7726-.0017-2.4495l12.944-12.88662c.6799-.67687 1.783-.6776 2.4638-.00164z" fill="url(#k)"/><path d="m17.0457 14.0131c.6792.6776.6773 1.7743-.0042 2.4495l-5.0696 5.023c-.6815.6753-1.7846.6734-2.46376-.0042-.67917-.6776-.67727-1.7743.00424-2.4495l5.06962-5.023c.6815-.6753 1.7846-.6734 2.4637.0042z" fill="url(#l)" opacity=".7"/><path d="m20.1503 9.00024c.9622 0 1.7422.77548 1.7422 1.73206v.1732c0 .9566-.78 1.7321-1.7422 1.7321-.9621 0-1.7421-.7755-1.7421-1.7321v-.1732c0-.95658.78-1.73206 1.7421-1.73206z" fill="url(#m)" opacity=".5"/></g></g><rect height="46" rx="11" stroke="url(#n)" stroke-width="2" width="46" x="1" y="1"/></g><g fill="#0c111d"><path d="m76.254 23.7659c.675.918 1.026 2.052 1.026 3.348 0 1.134-.297 2.133-.864 3.024-.594.918-1.377 1.62-2.403 2.106-1.026.513-2.187.756-3.483.756h-10.53v-21.33h9.828c2.025 0 3.618.513 4.806 1.539 1.161 1.026 1.755 2.376 1.755 4.077 0 1.134-.27 2.133-.81 2.943s-1.296 1.404-2.241 1.728c1.242.27 2.214.891 2.916 1.809zm-12.042-3.321h4.239c1.242 0 2.16-.162 2.754-.54s.891-.945.891-1.728c0-.81-.324-1.431-.945-1.836-.621-.378-1.566-.594-2.835-.594h-4.104zm7.776 7.857c.621-.405.945-1.026.945-1.89 0-.783-.324-1.377-.918-1.755s-1.539-.567-2.808-.567h-4.995v4.833h4.887c1.296 0 2.241-.189 2.889-.621z"/><path d="m79.5033 16.5299c-.486-.486-.729-1.08-.729-1.836 0-.702.243-1.296.729-1.782.486-.459 1.08-.702 1.836-.702.729 0 1.323.243 1.809.702.486.486.729 1.08.729 1.782 0 .729-.243 1.323-.729 1.809s-1.08.729-1.809.729c-.756 0-1.35-.216-1.836-.702zm-.189 2.43h4.023v14.04h-4.023z"/><path d="m88.5833 32.4869c-1.134-.648-2.025-1.539-2.646-2.673-.648-1.134-.945-2.403-.945-3.861 0-1.431.297-2.7.945-3.834.621-1.134 1.512-1.998 2.646-2.646 1.134-.621 2.43-.945 3.888-.945s2.754.324 3.888.945c1.134.648 1.998 1.512 2.646 2.646s.972 2.403.972 3.834c0 1.458-.324 2.727-.972 3.861s-1.539 2.025-2.673 2.673-2.43.945-3.861.945c-1.458 0-2.754-.297-3.888-.945zm6.399-3.645c.648-.756.972-1.701.972-2.889 0-1.161-.324-2.106-.972-2.862-.648-.729-1.485-1.107-2.511-1.107s-1.836.378-2.484 1.107c-.648.756-.972 1.701-.972 2.862 0 1.188.324 2.133.972 2.889s1.458 1.134 2.484 1.134 1.863-.378 2.511-1.134z"/><path d="m102.987 32.1359c-1.215-.864-1.836-2.079-1.863-3.618h3.969c0 .675.297 1.188.837 1.566s1.242.567 2.106.567c.729 0 1.323-.135 1.755-.459s.675-.702.675-1.134c0-.513-.27-.864-.81-1.08-.54-.189-1.35-.378-2.484-.54-1.188-.162-2.16-.351-2.916-.567s-1.431-.621-1.971-1.215-.81-1.431-.81-2.511c0-1.404.567-2.538 1.755-3.375 1.188-.81 2.808-1.242 4.86-1.242 1.863 0 3.348.459 4.482 1.35s1.755 2.106 1.89 3.645h-3.942c-.054-.675-.297-1.215-.756-1.62-.486-.378-1.107-.594-1.917-.594-.756 0-1.323.162-1.728.459-.432.324-.621.729-.621 1.215s.243.837.756 1.026c.513.216 1.323.378 2.403.486 1.188.162 2.187.378 2.97.594.756.216 1.431.648 1.998 1.242.54.594.837 1.458.837 2.592 0 1.404-.594 2.484-1.755 3.294s-2.754 1.215-4.779 1.215c-2.106 0-3.753-.432-4.941-1.296z"/><path d="m115.535 34.8629h1.377c.864.027 1.566-.081 2.106-.324.513-.243.999-.675 1.458-1.323l-6.345-14.256h4.212l4.212 9.369 3.51-9.369h4.185l-5.724 15.066c-.702 1.647-1.62 2.781-2.781 3.429s-2.646.945-4.482.945h-1.728z"/><path d="m130.921 18.9599h3.996v2.025c.486-.756 1.107-1.377 1.917-1.809s1.755-.648 2.835-.648c3.456 0 5.211 2.187 5.211 6.534v7.938h-4.05v-7.722c0-1.026-.243-1.809-.729-2.403s-1.161-.891-2.025-.891c-.972 0-1.755.351-2.322 1.053s-.837 1.62-.837 2.781v7.182h-3.996z"/><path d="m152.84 33.1079c-1.08 0-1.917-.108-2.511-.324-.621-.216-1.08-.594-1.35-1.161-.297-.567-.432-1.377-.405-2.403v-6.615h-2.997l.253-3.645h2.744v-3.78h3.996v3.78h3.672l-.252 3.645h-3.42v4.563c0 .702.027 1.188.081 1.485.054.324.216.54.432.675s.567.189 1.08.189c.378 0 1.456-.027 2.077-.081l-.25 3.537c-1.215.108-2.475.135-3.15.135z"/><path d="m157.752 11.6699h3.996v9.288c.486-.756 1.107-1.35 1.917-1.782s1.755-.648 2.835-.648c3.456 0 5.211 2.187 5.211 6.507v7.965h-4.05v-7.776c0-1.026-.243-1.809-.729-2.376s-1.161-.864-2.025-.864c-.972 0-1.755.351-2.322 1.026-.567.702-.837 1.62-.837 2.754v7.236h-3.996z"/><path d="m176.749 32.4869c-1.134-.648-1.998-1.539-2.619-2.673s-.918-2.403-.918-3.861c0-1.431.297-2.7.918-3.834s1.485-1.998 2.619-2.646c1.107-.621 2.376-.945 3.807-.945 1.242 0 2.349.324 3.348.918s1.782 1.458 2.376 2.565c.567 1.134.864 2.403.864 3.861v1.296h-9.855c.081.945.405 1.674.945 2.214s1.323.783 2.349.783c.675 0 1.242-.162 1.674-.486s.702-.729.81-1.242h3.996c-.216 1.512-.945 2.727-2.133 3.645s-2.646 1.35-4.374 1.35c-1.431 0-2.7-.297-3.807-.945zm6.372-7.776c-.054-.81-.297-1.458-.783-1.971-.486-.486-1.134-.756-1.944-.756-.918 0-1.62.243-2.133.729s-.837 1.161-.945 1.998z"/><path d="m190.151 32.1359c-1.215-.864-1.836-2.079-1.863-3.618h3.969c0 .675.297 1.188.837 1.566s1.242.567 2.106.567c.729 0 1.323-.135 1.755-.459s.675-.702.675-1.134c0-.513-.27-.864-.81-1.08-.54-.189-1.35-.378-2.484-.54-1.188-.162-2.16-.351-2.916-.567s-1.431-.621-1.971-1.215-.81-1.431-.81-2.511c0-1.404.567-2.538 1.755-3.375 1.188-.81 2.808-1.242 4.86-1.242 1.863 0 3.348.459 4.482 1.35s1.755 2.106 1.89 3.645h-3.942c-.054-.675-.297-1.215-.756-1.62-.486-.378-1.107-.594-1.917-.594-.756 0-1.323.162-1.728.459-.432.324-.621.729-.621 1.215s.243.837.756 1.026c.513.216 1.323.378 2.403.486 1.188.162 2.187.378 2.97.594.756.216 1.431.648 1.998 1.242.54.594.837 1.458.837 2.592 0 1.404-.594 2.484-1.755 3.294s-2.754 1.215-4.779 1.215c-2.106 0-3.753-.432-4.941-1.296z"/><path d="m203.461 16.5299c-.486-.486-.729-1.08-.729-1.836 0-.702.243-1.296.729-1.782.486-.459 1.08-.702 1.836-.702.729 0 1.323.243 1.809.702.486.486.729 1.08.729 1.782 0 .729-.243 1.323-.729 1.809s-1.08.729-1.809.729c-.756 0-1.35-.216-1.836-.702zm-.189 2.43h4.023v14.04h-4.023z"/><path d="m220.425 32.1359c1.215-.864 1.836-2.079 1.863-3.618h-3.969c0 .675-.297 1.188-.837 1.566s-1.242.567-2.106.567c-.729 0-1.323-.135-1.755-.459s-.675-.702-.675-1.134c0-.513.27-.864.81-1.08.54-.189 1.35-.378 2.484-.54 1.188-.162 2.16-.351 2.916-.567s1.431-.621 1.971-1.215.81-1.431.81-2.511c0-1.404-.567-2.538-1.755-3.375-1.188-.81-2.808-1.242-4.86-1.242-1.863 0-3.348.459-4.482 1.35s-1.755 2.106-1.89 3.645h3.942c.054-.675.297-1.215.756-1.62.486-.378 1.107-.594 1.917-.594.756 0 1.323.162 1.728.459.432.324.621.729.621 1.215s-.243.837-.756 1.026c-.513.216-1.323.378-2.403.486-1.188.162-2.187.378-2.97.594-.756.216-1.431.648-1.998 1.242-.54.594-.837 1.458-.837 2.592 0 1.404.594 2.484 1.755 3.294s2.754 1.215 4.779 1.215c2.106 0 3.753-.432 4.941-1.296z"/></g></svg>